<?xml version="1.0" encoding="utf-8" standalone="no"?>
<!DOCTYPE svg PUBLIC "-//W3C//DTD SVG 1.1//EN"
  "http://www.w3.org/Graphics/SVG/1.1/DTD/svg11.dtd">
<svg xmlns:xlink="http://www.w3.org/1999/xlink" width="864pt" height="288pt" viewBox="0 0 864 288" xmlns="http://www.w3.org/2000/svg" version="1.1">
 <metadata>
  <rdf:RDF xmlns:dc="http://purl.org/dc/elements/1.1/" xmlns:cc="http://creativecommons.org/ns#" xmlns:rdf="http://www.w3.org/1999/02/22-rdf-syntax-ns#">
   <cc:Work>
    <dc:type rdf:resource="http://purl.org/dc/dcmitype/StillImage"/>
    <dc:date>2026-01-27T22:53:03.012442</dc:date>
    <dc:format>image/svg+xml</dc:format>
    <dc:creator>
     <cc:Agent>
      <dc:title>Matplotlib v3.7.5, https://matplotlib.org/</dc:title>
     </cc:Agent>
    </dc:creator>
   </cc:Work>
  </rdf:RDF>
 </metadata>
 <defs>
  <style type="text/css">*{stroke-linejoin: round; stroke-linecap: butt}</style>
 </defs>
 <g id="figure_1">
  <g id="patch_1">
   <path d="M 0 288 
L 864 288 
L 864 0 
L 0 0 
z
" style="fill: #ffffff"/>
  </g>
  <g id="axes_1">
   <g id="patch_2">
    <path d="M 55.772054 246.04 
L 853.2 246.04 
L 853.2 26.88 
L 55.772054 26.88 
z
" style="fill: #ffffff"/>
   </g>
   <g id="PathCollection_1">
    <defs>
     <path id="m275629499f" d="M 0 3 
C 0.795609 3 1.55874 2.683901 2.12132 2.12132 
C 2.683901 1.55874 3 0.795609 3 0 
C 3 -0.795609 2.683901 -1.55874 2.12132 -2.12132 
C 1.55874 -2.683901 0.795609 -3 0 -3 
C -0.795609 -3 -1.55874 -2.683901 -2.12132 -2.12132 
C -2.683901 -1.55874 -3 -0.795609 -3 0 
C -3 0.795609 -2.683901 1.55874 -2.12132 2.12132 
C -1.55874 2.683901 -0.795609 3 0 3 
z
" style="stroke: #1f77b4"/>
    </defs>
    <g clip-path="url(#pfa84f0c629)">
     <use xlink:href="#m275629499f" x="92.018779" y="83.583079" style="fill: #1f77b4; stroke: #1f77b4"/>
     <use xlink:href="#m275629499f" x="99.056978" y="60.975944" style="fill: #1f77b4; stroke: #1f77b4"/>
     <use xlink:href="#m275629499f" x="106.095177" y="58.372583" style="fill: #1f77b4; stroke: #1f77b4"/>
     <use xlink:href="#m275629499f" x="113.133376" y="59.340534" style="fill: #1f77b4; stroke: #1f77b4"/>
     <use xlink:href="#m275629499f" x="120.171575" y="142.508184" style="fill: #1f77b4; stroke: #1f77b4"/>
     <use xlink:href="#m275629499f" x="127.209774" y="142.312205" style="fill: #1f77b4; stroke: #1f77b4"/>
     <use xlink:href="#m275629499f" x="134.247973" y="61.333861" style="fill: #1f77b4; stroke: #1f77b4"/>
     <use xlink:href="#m275629499f" x="141.286172" y="136.512415" style="fill: #1f77b4; stroke: #1f77b4"/>
     <use xlink:href="#m275629499f" x="148.324371" y="135.735069" style="fill: #1f77b4; stroke: #1f77b4"/>
     <use xlink:href="#m275629499f" x="155.36257" y="76.096068" style="fill: #1f77b4; stroke: #1f77b4"/>
     <use xlink:href="#m275629499f" x="162.400769" y="182.896481" style="fill: #1f77b4; stroke: #1f77b4"/>
     <use xlink:href="#m275629499f" x="169.438968" y="162.460493" style="fill: #1f77b4; stroke: #1f77b4"/>
     <use xlink:href="#m275629499f" x="176.477167" y="109.585331" style="fill: #1f77b4; stroke: #1f77b4"/>
     <use xlink:href="#m275629499f" x="183.515366" y="188.342707" style="fill: #1f77b4; stroke: #1f77b4"/>
     <use xlink:href="#m275629499f" x="190.553565" y="142.989796" style="fill: #1f77b4; stroke: #1f77b4"/>
     <use xlink:href="#m275629499f" x="197.591764" y="162.193441" style="fill: #1f77b4; stroke: #1f77b4"/>
     <use xlink:href="#m275629499f" x="204.629963" y="182.680108" style="fill: #1f77b4; stroke: #1f77b4"/>
     <use xlink:href="#m275629499f" x="211.668162" y="60.206052" style="fill: #1f77b4; stroke: #1f77b4"/>
     <use xlink:href="#m275629499f" x="218.706361" y="49.054026" style="fill: #1f77b4; stroke: #1f77b4"/>
     <use xlink:href="#m275629499f" x="225.74456" y="39.556461" style="fill: #1f77b4; stroke: #1f77b4"/>
     <use xlink:href="#m275629499f" x="232.782759" y="136.835026" style="fill: #1f77b4; stroke: #1f77b4"/>
     <use xlink:href="#m275629499f" x="239.820958" y="53.864881" style="fill: #1f77b4; stroke: #1f77b4"/>
     <use xlink:href="#m275629499f" x="246.859157" y="131.461936" style="fill: #1f77b4; stroke: #1f77b4"/>
     <use xlink:href="#m275629499f" x="253.897356" y="88.543656" style="fill: #1f77b4; stroke: #1f77b4"/>
     <use xlink:href="#m275629499f" x="260.935555" y="101.863652" style="fill: #1f77b4; stroke: #1f77b4"/>
     <use xlink:href="#m275629499f" x="267.973754" y="118.050964" style="fill: #1f77b4; stroke: #1f77b4"/>
     <use xlink:href="#m275629499f" x="275.011953" y="69.943892" style="fill: #1f77b4; stroke: #1f77b4"/>
     <use xlink:href="#m275629499f" x="282.050152" y="116.396952" style="fill: #1f77b4; stroke: #1f77b4"/>
     <use xlink:href="#m275629499f" x="289.088351" y="95.951498" style="fill: #1f77b4; stroke: #1f77b4"/>
     <use xlink:href="#m275629499f" x="296.12655" y="111.981827" style="fill: #1f77b4; stroke: #1f77b4"/>
     <use xlink:href="#m275629499f" x="303.164749" y="55.648444" style="fill: #1f77b4; stroke: #1f77b4"/>
     <use xlink:href="#m275629499f" x="310.202948" y="66.595764" style="fill: #1f77b4; stroke: #1f77b4"/>
     <use xlink:href="#m275629499f" x="317.241147" y="81.505127" style="fill: #1f77b4; stroke: #1f77b4"/>
     <use xlink:href="#m275629499f" x="324.279346" y="131.492048" style="fill: #1f77b4; stroke: #1f77b4"/>
     <use xlink:href="#m275629499f" x="331.317545" y="90.26233" style="fill: #1f77b4; stroke: #1f77b4"/>
     <use xlink:href="#m275629499f" x="338.355744" y="137.560726" style="fill: #1f77b4; stroke: #1f77b4"/>
     <use xlink:href="#m275629499f" x="345.393943" y="134.171296" style="fill: #1f77b4; stroke: #1f77b4"/>
     <use xlink:href="#m275629499f" x="352.432142" y="128.403792" style="fill: #1f77b4; stroke: #1f77b4"/>
     <use xlink:href="#m275629499f" x="359.470341" y="79.330573" style="fill: #1f77b4; stroke: #1f77b4"/>
     <use xlink:href="#m275629499f" x="366.50854" y="37.891816" style="fill: #1f77b4; stroke: #1f77b4"/>
     <use xlink:href="#m275629499f" x="373.546739" y="85.852383" style="fill: #1f77b4; stroke: #1f77b4"/>
     <use xlink:href="#m275629499f" x="380.584938" y="136.170854" style="fill: #1f77b4; stroke: #1f77b4"/>
     <use xlink:href="#m275629499f" x="387.623137" y="141.90528" style="fill: #1f77b4; stroke: #1f77b4"/>
     <use xlink:href="#m275629499f" x="394.661335" y="119.445307" style="fill: #1f77b4; stroke: #1f77b4"/>
     <use xlink:href="#m275629499f" x="401.699534" y="143.997068" style="fill: #1f77b4; stroke: #1f77b4"/>
     <use xlink:href="#m275629499f" x="408.737733" y="144.865473" style="fill: #1f77b4; stroke: #1f77b4"/>
     <use xlink:href="#m275629499f" x="415.775932" y="116.207886" style="fill: #1f77b4; stroke: #1f77b4"/>
     <use xlink:href="#m275629499f" x="422.814131" y="128.276416" style="fill: #1f77b4; stroke: #1f77b4"/>
     <use xlink:href="#m275629499f" x="429.85233" y="97.409027" style="fill: #1f77b4; stroke: #1f77b4"/>
     <use xlink:href="#m275629499f" x="436.890529" y="151.116742" style="fill: #1f77b4; stroke: #1f77b4"/>
     <use xlink:href="#m275629499f" x="443.928728" y="123.705717" style="fill: #1f77b4; stroke: #1f77b4"/>
     <use xlink:href="#m275629499f" x="450.966927" y="123.44492" style="fill: #1f77b4; stroke: #1f77b4"/>
     <use xlink:href="#m275629499f" x="458.005126" y="133.180736" style="fill: #1f77b4; stroke: #1f77b4"/>
     <use xlink:href="#m275629499f" x="465.043325" y="135.117512" style="fill: #1f77b4; stroke: #1f77b4"/>
     <use xlink:href="#m275629499f" x="472.081524" y="134.710533" style="fill: #1f77b4; stroke: #1f77b4"/>
     <use xlink:href="#m275629499f" x="479.119723" y="119.867659" style="fill: #1f77b4; stroke: #1f77b4"/>
     <use xlink:href="#m275629499f" x="486.157922" y="36.841818" style="fill: #1f77b4; stroke: #1f77b4"/>
     <use xlink:href="#m275629499f" x="493.196121" y="120.290715" style="fill: #1f77b4; stroke: #1f77b4"/>
     <use xlink:href="#m275629499f" x="500.23432" y="141.926619" style="fill: #1f77b4; stroke: #1f77b4"/>
     <use xlink:href="#m275629499f" x="507.272519" y="115.740849" style="fill: #1f77b4; stroke: #1f77b4"/>
     <use xlink:href="#m275629499f" x="514.310718" y="76.952777" style="fill: #1f77b4; stroke: #1f77b4"/>
     <use xlink:href="#m275629499f" x="521.348917" y="149.820788" style="fill: #1f77b4; stroke: #1f77b4"/>
     <use xlink:href="#m275629499f" x="528.387116" y="56.074473" style="fill: #1f77b4; stroke: #1f77b4"/>
     <use xlink:href="#m275629499f" x="535.425315" y="105.14387" style="fill: #1f77b4; stroke: #1f77b4"/>
     <use xlink:href="#m275629499f" x="542.463514" y="101.986227" style="fill: #1f77b4; stroke: #1f77b4"/>
     <use xlink:href="#m275629499f" x="549.501713" y="71.270601" style="fill: #1f77b4; stroke: #1f77b4"/>
     <use xlink:href="#m275629499f" x="556.539912" y="106.865427" style="fill: #1f77b4; stroke: #1f77b4"/>
     <use xlink:href="#m275629499f" x="563.578111" y="106.678768" style="fill: #1f77b4; stroke: #1f77b4"/>
     <use xlink:href="#m275629499f" x="570.61631" y="93.764609" style="fill: #1f77b4; stroke: #1f77b4"/>
     <use xlink:href="#m275629499f" x="577.654509" y="93.753522" style="fill: #1f77b4; stroke: #1f77b4"/>
     <use xlink:href="#m275629499f" x="584.692708" y="125.834963" style="fill: #1f77b4; stroke: #1f77b4"/>
     <use xlink:href="#m275629499f" x="591.730907" y="113.212479" style="fill: #1f77b4; stroke: #1f77b4"/>
     <use xlink:href="#m275629499f" x="598.769106" y="127.579337" style="fill: #1f77b4; stroke: #1f77b4"/>
     <use xlink:href="#m275629499f" x="605.807305" y="115.568452" style="fill: #1f77b4; stroke: #1f77b4"/>
     <use xlink:href="#m275629499f" x="612.845504" y="84.07944" style="fill: #1f77b4; stroke: #1f77b4"/>
     <use xlink:href="#m275629499f" x="619.883703" y="107.866575" style="fill: #1f77b4; stroke: #1f77b4"/>
     <use xlink:href="#m275629499f" x="626.921902" y="77.334403" style="fill: #1f77b4; stroke: #1f77b4"/>
     <use xlink:href="#m275629499f" x="633.960101" y="54.097118" style="fill: #1f77b4; stroke: #1f77b4"/>
     <use xlink:href="#m275629499f" x="640.9983" y="152.613066" style="fill: #1f77b4; stroke: #1f77b4"/>
     <use xlink:href="#m275629499f" x="648.036499" y="117.720998" style="fill: #1f77b4; stroke: #1f77b4"/>
     <use xlink:href="#m275629499f" x="655.074698" y="51.760004" style="fill: #1f77b4; stroke: #1f77b4"/>
     <use xlink:href="#m275629499f" x="662.112897" y="89.518717" style="fill: #1f77b4; stroke: #1f77b4"/>
     <use xlink:href="#m275629499f" x="669.151096" y="96.143958" style="fill: #1f77b4; stroke: #1f77b4"/>
     <use xlink:href="#m275629499f" x="676.189295" y="81.494495" style="fill: #1f77b4; stroke: #1f77b4"/>
     <use xlink:href="#m275629499f" x="683.227494" y="105.231394" style="fill: #1f77b4; stroke: #1f77b4"/>
     <use xlink:href="#m275629499f" x="690.265693" y="104.966569" style="fill: #1f77b4; stroke: #1f77b4"/>
     <use xlink:href="#m275629499f" x="697.303892" y="116.04753" style="fill: #1f77b4; stroke: #1f77b4"/>
     <use xlink:href="#m275629499f" x="704.342091" y="115.296281" style="fill: #1f77b4; stroke: #1f77b4"/>
     <use xlink:href="#m275629499f" x="711.38029" y="133.493771" style="fill: #1f77b4; stroke: #1f77b4"/>
     <use xlink:href="#m275629499f" x="718.418489" y="131.539674" style="fill: #1f77b4; stroke: #1f77b4"/>
     <use xlink:href="#m275629499f" x="725.456688" y="229.181974" style="fill: #1f77b4; stroke: #1f77b4"/>
     <use xlink:href="#m275629499f" x="732.494887" y="236.078182" style="fill: #1f77b4; stroke: #1f77b4"/>
     <use xlink:href="#m275629499f" x="739.533086" y="155.686071" style="fill: #1f77b4; stroke: #1f77b4"/>
     <use xlink:href="#m275629499f" x="746.571285" y="103.316021" style="fill: #1f77b4; stroke: #1f77b4"/>
     <use xlink:href="#m275629499f" x="753.609484" y="64.928804" style="fill: #1f77b4; stroke: #1f77b4"/>
     <use xlink:href="#m275629499f" x="760.647683" y="109.056316" style="fill: #1f77b4; stroke: #1f77b4"/>
     <use xlink:href="#m275629499f" x="767.685882" y="101.612918" style="fill: #1f77b4; stroke: #1f77b4"/>
     <use xlink:href="#m275629499f" x="774.724081" y="68.221301" style="fill: #1f77b4; stroke: #1f77b4"/>
     <use xlink:href="#m275629499f" x="781.76228" y="95.970906" style="fill: #1f77b4; stroke: #1f77b4"/>
     <use xlink:href="#m275629499f" x="788.800479" y="77.65981" style="fill: #1f77b4; stroke: #1f77b4"/>
     <use xlink:href="#m275629499f" x="795.838678" y="139.216401" style="fill: #1f77b4; stroke: #1f77b4"/>
     <use xlink:href="#m275629499f" x="802.876877" y="159.958214" style="fill: #1f77b4; stroke: #1f77b4"/>
     <use xlink:href="#m275629499f" x="809.915076" y="164.358847" style="fill: #1f77b4; stroke: #1f77b4"/>
     <use xlink:href="#m275629499f" x="816.953275" y="152.994162" style="fill: #1f77b4; stroke: #1f77b4"/>
    </g>
   </g>
   <g id="matplotlib.axis_1">
    <g id="xtick_1">
     <g id="line2d_1">
      <defs>
       <path id="md28f7164b9" d="M 0 0 
L 0 3.5 
" style="stroke: #000000; stroke-width: 0.8"/>
      </defs>
      <g>
       <use xlink:href="#md28f7164b9" x="92.018779" y="246.04" style="stroke: #000000; stroke-width: 0.8"/>
      </g>
     </g>
     <g id="text_1">
      <!-- 0 -->
      <g transform="translate(88.837529 260.638438) scale(0.1 -0.1)">
       <defs>
        <path id="DejaVuSans-30" d="M 2034 4250 
Q 1547 4250 1301 3770 
Q 1056 3291 1056 2328 
Q 1056 1369 1301 889 
Q 1547 409 2034 409 
Q 2525 409 2770 889 
Q 3016 1369 3016 2328 
Q 3016 3291 2770 3770 
Q 2525 4250 2034 4250 
z
M 2034 4750 
Q 2819 4750 3233 4129 
Q 3647 3509 3647 2328 
Q 3647 1150 3233 529 
Q 2819 -91 2034 -91 
Q 1250 -91 836 529 
Q 422 1150 422 2328 
Q 422 3509 836 4129 
Q 1250 4750 2034 4750 
z
" transform="scale(0.015625)"/>
       </defs>
       <use xlink:href="#DejaVuSans-30"/>
      </g>
     </g>
    </g>
    <g id="xtick_2">
     <g id="line2d_2">
      <g>
       <use xlink:href="#md28f7164b9" x="232.782759" y="246.04" style="stroke: #000000; stroke-width: 0.8"/>
      </g>
     </g>
     <g id="text_2">
      <!-- 20 -->
      <g transform="translate(226.420259 260.638438) scale(0.1 -0.1)">
       <defs>
        <path id="DejaVuSans-32" d="M 1228 531 
L 3431 531 
L 3431 0 
L 469 0 
L 469 531 
Q 828 903 1448 1529 
Q 2069 2156 2228 2338 
Q 2531 2678 2651 2914 
Q 2772 3150 2772 3378 
Q 2772 3750 2511 3984 
Q 2250 4219 1831 4219 
Q 1534 4219 1204 4116 
Q 875 4013 500 3803 
L 500 4441 
Q 881 4594 1212 4672 
Q 1544 4750 1819 4750 
Q 2544 4750 2975 4387 
Q 3406 4025 3406 3419 
Q 3406 3131 3298 2873 
Q 3191 2616 2906 2266 
Q 2828 2175 2409 1742 
Q 1991 1309 1228 531 
z
" transform="scale(0.015625)"/>
       </defs>
       <use xlink:href="#DejaVuSans-32"/>
       <use xlink:href="#DejaVuSans-30" x="63.623047"/>
      </g>
     </g>
    </g>
    <g id="xtick_3">
     <g id="line2d_3">
      <g>
       <use xlink:href="#md28f7164b9" x="373.546739" y="246.04" style="stroke: #000000; stroke-width: 0.8"/>
      </g>
     </g>
     <g id="text_3">
      <!-- 40 -->
      <g transform="translate(367.184239 260.638438) scale(0.1 -0.1)">
       <defs>
        <path id="DejaVuSans-34" d="M 2419 4116 
L 825 1625 
L 2419 1625 
L 2419 4116 
z
M 2253 4666 
L 3047 4666 
L 3047 1625 
L 3713 1625 
L 3713 1100 
L 3047 1100 
L 3047 0 
L 2419 0 
L 2419 1100 
L 313 1100 
L 313 1709 
L 2253 4666 
z
" transform="scale(0.015625)"/>
       </defs>
       <use xlink:href="#DejaVuSans-34"/>
       <use xlink:href="#DejaVuSans-30" x="63.623047"/>
      </g>
     </g>
    </g>
    <g id="xtick_4">
     <g id="line2d_4">
      <g>
       <use xlink:href="#md28f7164b9" x="514.310718" y="246.04" style="stroke: #000000; stroke-width: 0.8"/>
      </g>
     </g>
     <g id="text_4">
      <!-- 60 -->
      <g transform="translate(507.948218 260.638438) scale(0.1 -0.1)">
       <defs>
        <path id="DejaVuSans-36" d="M 2113 2584 
Q 1688 2584 1439 2293 
Q 1191 2003 1191 1497 
Q 1191 994 1439 701 
Q 1688 409 2113 409 
Q 2538 409 2786 701 
Q 3034 994 3034 1497 
Q 3034 2003 2786 2293 
Q 2538 2584 2113 2584 
z
M 3366 4563 
L 3366 3988 
Q 3128 4100 2886 4159 
Q 2644 4219 2406 4219 
Q 1781 4219 1451 3797 
Q 1122 3375 1075 2522 
Q 1259 2794 1537 2939 
Q 1816 3084 2150 3084 
Q 2853 3084 3261 2657 
Q 3669 2231 3669 1497 
Q 3669 778 3244 343 
Q 2819 -91 2113 -91 
Q 1303 -91 875 529 
Q 447 1150 447 2328 
Q 447 3434 972 4092 
Q 1497 4750 2381 4750 
Q 2619 4750 2861 4703 
Q 3103 4656 3366 4563 
z
" transform="scale(0.015625)"/>
       </defs>
       <use xlink:href="#DejaVuSans-36"/>
       <use xlink:href="#DejaVuSans-30" x="63.623047"/>
      </g>
     </g>
    </g>
    <g id="xtick_5">
     <g id="line2d_5">
      <g>
       <use xlink:href="#md28f7164b9" x="655.074698" y="246.04" style="stroke: #000000; stroke-width: 0.8"/>
      </g>
     </g>
     <g id="text_5">
      <!-- 80 -->
      <g transform="translate(648.712198 260.638438) scale(0.1 -0.1)">
       <defs>
        <path id="DejaVuSans-38" d="M 2034 2216 
Q 1584 2216 1326 1975 
Q 1069 1734 1069 1313 
Q 1069 891 1326 650 
Q 1584 409 2034 409 
Q 2484 409 2743 651 
Q 3003 894 3003 1313 
Q 3003 1734 2745 1975 
Q 2488 2216 2034 2216 
z
M 1403 2484 
Q 997 2584 770 2862 
Q 544 3141 544 3541 
Q 544 4100 942 4425 
Q 1341 4750 2034 4750 
Q 2731 4750 3128 4425 
Q 3525 4100 3525 3541 
Q 3525 3141 3298 2862 
Q 3072 2584 2669 2484 
Q 3125 2378 3379 2068 
Q 3634 1759 3634 1313 
Q 3634 634 3220 271 
Q 2806 -91 2034 -91 
Q 1263 -91 848 271 
Q 434 634 434 1313 
Q 434 1759 690 2068 
Q 947 2378 1403 2484 
z
M 1172 3481 
Q 1172 3119 1398 2916 
Q 1625 2713 2034 2713 
Q 2441 2713 2670 2916 
Q 2900 3119 2900 3481 
Q 2900 3844 2670 4047 
Q 2441 4250 2034 4250 
Q 1625 4250 1398 4047 
Q 1172 3844 1172 3481 
z
" transform="scale(0.015625)"/>
       </defs>
       <use xlink:href="#DejaVuSans-38"/>
       <use xlink:href="#DejaVuSans-30" x="63.623047"/>
      </g>
     </g>
    </g>
    <g id="xtick_6">
     <g id="line2d_6">
      <g>
       <use xlink:href="#md28f7164b9" x="795.838678" y="246.04" style="stroke: #000000; stroke-width: 0.8"/>
      </g>
     </g>
     <g id="text_6">
      <!-- 100 -->
      <g transform="translate(786.294928 260.638438) scale(0.1 -0.1)">
       <defs>
        <path id="DejaVuSans-31" d="M 794 531 
L 1825 531 
L 1825 4091 
L 703 3866 
L 703 4441 
L 1819 4666 
L 2450 4666 
L 2450 531 
L 3481 531 
L 3481 0 
L 794 0 
L 794 531 
z
" transform="scale(0.015625)"/>
       </defs>
       <use xlink:href="#DejaVuSans-31"/>
       <use xlink:href="#DejaVuSans-30" x="63.623047"/>
       <use xlink:href="#DejaVuSans-30" x="127.246094"/>
      </g>
     </g>
    </g>
    <g id="text_7">
     <!-- Query Index -->
     <g transform="translate(423.934464 274.316562) scale(0.1 -0.1)">
      <defs>
       <path id="DejaVuSans-51" d="M 2522 4238 
Q 1834 4238 1429 3725 
Q 1025 3213 1025 2328 
Q 1025 1447 1429 934 
Q 1834 422 2522 422 
Q 3209 422 3611 934 
Q 4013 1447 4013 2328 
Q 4013 3213 3611 3725 
Q 3209 4238 2522 4238 
z
M 3406 84 
L 4238 -825 
L 3475 -825 
L 2784 -78 
Q 2681 -84 2626 -87 
Q 2572 -91 2522 -91 
Q 1538 -91 948 567 
Q 359 1225 359 2328 
Q 359 3434 948 4092 
Q 1538 4750 2522 4750 
Q 3503 4750 4090 4092 
Q 4678 3434 4678 2328 
Q 4678 1516 4351 937 
Q 4025 359 3406 84 
z
" transform="scale(0.015625)"/>
       <path id="DejaVuSans-75" d="M 544 1381 
L 544 3500 
L 1119 3500 
L 1119 1403 
Q 1119 906 1312 657 
Q 1506 409 1894 409 
Q 2359 409 2629 706 
Q 2900 1003 2900 1516 
L 2900 3500 
L 3475 3500 
L 3475 0 
L 2900 0 
L 2900 538 
Q 2691 219 2414 64 
Q 2138 -91 1772 -91 
Q 1169 -91 856 284 
Q 544 659 544 1381 
z
M 1991 3584 
L 1991 3584 
z
" transform="scale(0.015625)"/>
       <path id="DejaVuSans-65" d="M 3597 1894 
L 3597 1613 
L 953 1613 
Q 991 1019 1311 708 
Q 1631 397 2203 397 
Q 2534 397 2845 478 
Q 3156 559 3463 722 
L 3463 178 
Q 3153 47 2828 -22 
Q 2503 -91 2169 -91 
Q 1331 -91 842 396 
Q 353 884 353 1716 
Q 353 2575 817 3079 
Q 1281 3584 2069 3584 
Q 2775 3584 3186 3129 
Q 3597 2675 3597 1894 
z
M 3022 2063 
Q 3016 2534 2758 2815 
Q 2500 3097 2075 3097 
Q 1594 3097 1305 2825 
Q 1016 2553 972 2059 
L 3022 2063 
z
" transform="scale(0.015625)"/>
       <path id="DejaVuSans-72" d="M 2631 2963 
Q 2534 3019 2420 3045 
Q 2306 3072 2169 3072 
Q 1681 3072 1420 2755 
Q 1159 2438 1159 1844 
L 1159 0 
L 581 0 
L 581 3500 
L 1159 3500 
L 1159 2956 
Q 1341 3275 1631 3429 
Q 1922 3584 2338 3584 
Q 2397 3584 2469 3576 
Q 2541 3569 2628 3553 
L 2631 2963 
z
" transform="scale(0.015625)"/>
       <path id="DejaVuSans-79" d="M 2059 -325 
Q 1816 -950 1584 -1140 
Q 1353 -1331 966 -1331 
L 506 -1331 
L 506 -850 
L 844 -850 
Q 1081 -850 1212 -737 
Q 1344 -625 1503 -206 
L 1606 56 
L 191 3500 
L 800 3500 
L 1894 763 
L 2988 3500 
L 3597 3500 
L 2059 -325 
z
" transform="scale(0.015625)"/>
       <path id="DejaVuSans-20" transform="scale(0.015625)"/>
       <path id="DejaVuSans-49" d="M 628 4666 
L 1259 4666 
L 1259 0 
L 628 0 
L 628 4666 
z
" transform="scale(0.015625)"/>
       <path id="DejaVuSans-6e" d="M 3513 2113 
L 3513 0 
L 2938 0 
L 2938 2094 
Q 2938 2591 2744 2837 
Q 2550 3084 2163 3084 
Q 1697 3084 1428 2787 
Q 1159 2491 1159 1978 
L 1159 0 
L 581 0 
L 581 3500 
L 1159 3500 
L 1159 2956 
Q 1366 3272 1645 3428 
Q 1925 3584 2291 3584 
Q 2894 3584 3203 3211 
Q 3513 2838 3513 2113 
z
" transform="scale(0.015625)"/>
       <path id="DejaVuSans-64" d="M 2906 2969 
L 2906 4863 
L 3481 4863 
L 3481 0 
L 2906 0 
L 2906 525 
Q 2725 213 2448 61 
Q 2172 -91 1784 -91 
Q 1150 -91 751 415 
Q 353 922 353 1747 
Q 353 2572 751 3078 
Q 1150 3584 1784 3584 
Q 2172 3584 2448 3432 
Q 2725 3281 2906 2969 
z
M 947 1747 
Q 947 1113 1208 752 
Q 1469 391 1925 391 
Q 2381 391 2643 752 
Q 2906 1113 2906 1747 
Q 2906 2381 2643 2742 
Q 2381 3103 1925 3103 
Q 1469 3103 1208 2742 
Q 947 2381 947 1747 
z
" transform="scale(0.015625)"/>
       <path id="DejaVuSans-78" d="M 3513 3500 
L 2247 1797 
L 3578 0 
L 2900 0 
L 1881 1375 
L 863 0 
L 184 0 
L 1544 1831 
L 300 3500 
L 978 3500 
L 1906 2253 
L 2834 3500 
L 3513 3500 
z
" transform="scale(0.015625)"/>
      </defs>
      <use xlink:href="#DejaVuSans-51"/>
      <use xlink:href="#DejaVuSans-75" x="78.710938"/>
      <use xlink:href="#DejaVuSans-65" x="142.089844"/>
      <use xlink:href="#DejaVuSans-72" x="203.613281"/>
      <use xlink:href="#DejaVuSans-79" x="244.726562"/>
      <use xlink:href="#DejaVuSans-20" x="303.90625"/>
      <use xlink:href="#DejaVuSans-49" x="335.693359"/>
      <use xlink:href="#DejaVuSans-6e" x="365.185547"/>
      <use xlink:href="#DejaVuSans-64" x="428.564453"/>
      <use xlink:href="#DejaVuSans-65" x="492.041016"/>
      <use xlink:href="#DejaVuSans-78" x="551.814453"/>
     </g>
    </g>
   </g>
   <g id="matplotlib.axis_2">
    <g id="ytick_1">
     <g id="line2d_7">
      <defs>
       <path id="ma94e6b7ba9" d="M 0 0 
L -3.5 0 
" style="stroke: #000000; stroke-width: 0.8"/>
      </defs>
      <g>
       <use xlink:href="#ma94e6b7ba9" x="55.772054" y="236.222003" style="stroke: #000000; stroke-width: 0.8"/>
      </g>
     </g>
     <g id="text_8">
      <!-- $\mathdefault{10^{-2}}$ -->
      <g transform="translate(25.272054 240.021222) scale(0.1 -0.1)">
       <defs>
        <path id="DejaVuSans-2212" d="M 678 2272 
L 4684 2272 
L 4684 1741 
L 678 1741 
L 678 2272 
z
" transform="scale(0.015625)"/>
       </defs>
       <use xlink:href="#DejaVuSans-31" transform="translate(0 0.765625)"/>
       <use xlink:href="#DejaVuSans-30" transform="translate(63.623047 0.765625)"/>
       <use xlink:href="#DejaVuSans-2212" transform="translate(128.203125 39.046875) scale(0.7)"/>
       <use xlink:href="#DejaVuSans-32" transform="translate(186.855469 39.046875) scale(0.7)"/>
      </g>
     </g>
    </g>
    <g id="ytick_2">
     <g id="line2d_8">
      <g>
       <use xlink:href="#ma94e6b7ba9" x="55.772054" y="185.776425" style="stroke: #000000; stroke-width: 0.8"/>
      </g>
     </g>
     <g id="text_9">
      <!-- $\mathdefault{10^{-1}}$ -->
      <g transform="translate(25.272054 189.575643) scale(0.1 -0.1)">
       <use xlink:href="#DejaVuSans-31" transform="translate(0 0.684375)"/>
       <use xlink:href="#DejaVuSans-30" transform="translate(63.623047 0.684375)"/>
       <use xlink:href="#DejaVuSans-2212" transform="translate(128.203125 38.965625) scale(0.7)"/>
       <use xlink:href="#DejaVuSans-31" transform="translate(186.855469 38.965625) scale(0.7)"/>
      </g>
     </g>
    </g>
    <g id="ytick_3">
     <g id="line2d_9">
      <g>
       <use xlink:href="#ma94e6b7ba9" x="55.772054" y="135.330846" style="stroke: #000000; stroke-width: 0.8"/>
      </g>
     </g>
     <g id="text_10">
      <!-- $\mathdefault{10^{0}}$ -->
      <g transform="translate(31.172054 139.130065) scale(0.1 -0.1)">
       <use xlink:href="#DejaVuSans-31" transform="translate(0 0.765625)"/>
       <use xlink:href="#DejaVuSans-30" transform="translate(63.623047 0.765625)"/>
       <use xlink:href="#DejaVuSans-30" transform="translate(128.203125 39.046875) scale(0.7)"/>
      </g>
     </g>
    </g>
    <g id="ytick_4">
     <g id="line2d_10">
      <g>
       <use xlink:href="#ma94e6b7ba9" x="55.772054" y="84.885268" style="stroke: #000000; stroke-width: 0.8"/>
      </g>
     </g>
     <g id="text_11">
      <!-- $\mathdefault{10^{1}}$ -->
      <g transform="translate(31.172054 88.684487) scale(0.1 -0.1)">
       <use xlink:href="#DejaVuSans-31" transform="translate(0 0.684375)"/>
       <use xlink:href="#DejaVuSans-30" transform="translate(63.623047 0.684375)"/>
       <use xlink:href="#DejaVuSans-31" transform="translate(128.203125 38.965625) scale(0.7)"/>
      </g>
     </g>
    </g>
    <g id="ytick_5">
     <g id="line2d_11">
      <g>
       <use xlink:href="#ma94e6b7ba9" x="55.772054" y="34.43969" style="stroke: #000000; stroke-width: 0.8"/>
      </g>
     </g>
     <g id="text_12">
      <!-- $\mathdefault{10^{2}}$ -->
      <g transform="translate(31.172054 38.238909) scale(0.1 -0.1)">
       <use xlink:href="#DejaVuSans-31" transform="translate(0 0.765625)"/>
       <use xlink:href="#DejaVuSans-30" transform="translate(63.623047 0.765625)"/>
       <use xlink:href="#DejaVuSans-32" transform="translate(128.203125 39.046875) scale(0.7)"/>
      </g>
     </g>
    </g>
    <g id="ytick_6">
     <g id="line2d_12">
      <defs>
       <path id="md90caa7ed9" d="M 0 0 
L -2 0 
" style="stroke: #000000; stroke-width: 0.6"/>
      </defs>
      <g>
       <use xlink:href="#md90caa7ed9" x="55.772054" y="244.036122" style="stroke: #000000; stroke-width: 0.6"/>
      </g>
     </g>
    </g>
    <g id="ytick_7">
     <g id="line2d_13">
      <g>
       <use xlink:href="#md90caa7ed9" x="55.772054" y="241.110685" style="stroke: #000000; stroke-width: 0.6"/>
      </g>
     </g>
    </g>
    <g id="ytick_8">
     <g id="line2d_14">
      <g>
       <use xlink:href="#md90caa7ed9" x="55.772054" y="238.530266" style="stroke: #000000; stroke-width: 0.6"/>
      </g>
     </g>
    </g>
    <g id="ytick_9">
     <g id="line2d_15">
      <g>
       <use xlink:href="#md90caa7ed9" x="55.772054" y="221.036371" style="stroke: #000000; stroke-width: 0.6"/>
      </g>
     </g>
    </g>
    <g id="ytick_10">
     <g id="line2d_16">
      <g>
       <use xlink:href="#md90caa7ed9" x="55.772054" y="212.153345" style="stroke: #000000; stroke-width: 0.6"/>
      </g>
     </g>
    </g>
    <g id="ytick_11">
     <g id="line2d_17">
      <g>
       <use xlink:href="#md90caa7ed9" x="55.772054" y="205.850739" style="stroke: #000000; stroke-width: 0.6"/>
      </g>
     </g>
    </g>
    <g id="ytick_12">
     <g id="line2d_18">
      <g>
       <use xlink:href="#md90caa7ed9" x="55.772054" y="200.962057" style="stroke: #000000; stroke-width: 0.6"/>
      </g>
     </g>
    </g>
    <g id="ytick_13">
     <g id="line2d_19">
      <g>
       <use xlink:href="#md90caa7ed9" x="55.772054" y="196.967713" style="stroke: #000000; stroke-width: 0.6"/>
      </g>
     </g>
    </g>
    <g id="ytick_14">
     <g id="line2d_20">
      <g>
       <use xlink:href="#md90caa7ed9" x="55.772054" y="193.590544" style="stroke: #000000; stroke-width: 0.6"/>
      </g>
     </g>
    </g>
    <g id="ytick_15">
     <g id="line2d_21">
      <g>
       <use xlink:href="#md90caa7ed9" x="55.772054" y="190.665106" style="stroke: #000000; stroke-width: 0.6"/>
      </g>
     </g>
    </g>
    <g id="ytick_16">
     <g id="line2d_22">
      <g>
       <use xlink:href="#md90caa7ed9" x="55.772054" y="188.084688" style="stroke: #000000; stroke-width: 0.6"/>
      </g>
     </g>
    </g>
    <g id="ytick_17">
     <g id="line2d_23">
      <g>
       <use xlink:href="#md90caa7ed9" x="55.772054" y="170.590793" style="stroke: #000000; stroke-width: 0.6"/>
      </g>
     </g>
    </g>
    <g id="ytick_18">
     <g id="line2d_24">
      <g>
       <use xlink:href="#md90caa7ed9" x="55.772054" y="161.707767" style="stroke: #000000; stroke-width: 0.6"/>
      </g>
     </g>
    </g>
    <g id="ytick_19">
     <g id="line2d_25">
      <g>
       <use xlink:href="#md90caa7ed9" x="55.772054" y="155.40516" style="stroke: #000000; stroke-width: 0.6"/>
      </g>
     </g>
    </g>
    <g id="ytick_20">
     <g id="line2d_26">
      <g>
       <use xlink:href="#md90caa7ed9" x="55.772054" y="150.516479" style="stroke: #000000; stroke-width: 0.6"/>
      </g>
     </g>
    </g>
    <g id="ytick_21">
     <g id="line2d_27">
      <g>
       <use xlink:href="#md90caa7ed9" x="55.772054" y="146.522135" style="stroke: #000000; stroke-width: 0.6"/>
      </g>
     </g>
    </g>
    <g id="ytick_22">
     <g id="line2d_28">
      <g>
       <use xlink:href="#md90caa7ed9" x="55.772054" y="143.144965" style="stroke: #000000; stroke-width: 0.6"/>
      </g>
     </g>
    </g>
    <g id="ytick_23">
     <g id="line2d_29">
      <g>
       <use xlink:href="#md90caa7ed9" x="55.772054" y="140.219528" style="stroke: #000000; stroke-width: 0.6"/>
      </g>
     </g>
    </g>
    <g id="ytick_24">
     <g id="line2d_30">
      <g>
       <use xlink:href="#md90caa7ed9" x="55.772054" y="137.639109" style="stroke: #000000; stroke-width: 0.6"/>
      </g>
     </g>
    </g>
    <g id="ytick_25">
     <g id="line2d_31">
      <g>
       <use xlink:href="#md90caa7ed9" x="55.772054" y="120.145214" style="stroke: #000000; stroke-width: 0.6"/>
      </g>
     </g>
    </g>
    <g id="ytick_26">
     <g id="line2d_32">
      <g>
       <use xlink:href="#md90caa7ed9" x="55.772054" y="111.262189" style="stroke: #000000; stroke-width: 0.6"/>
      </g>
     </g>
    </g>
    <g id="ytick_27">
     <g id="line2d_33">
      <g>
       <use xlink:href="#md90caa7ed9" x="55.772054" y="104.959582" style="stroke: #000000; stroke-width: 0.6"/>
      </g>
     </g>
    </g>
    <g id="ytick_28">
     <g id="line2d_34">
      <g>
       <use xlink:href="#md90caa7ed9" x="55.772054" y="100.0709" style="stroke: #000000; stroke-width: 0.6"/>
      </g>
     </g>
    </g>
    <g id="ytick_29">
     <g id="line2d_35">
      <g>
       <use xlink:href="#md90caa7ed9" x="55.772054" y="96.076557" style="stroke: #000000; stroke-width: 0.6"/>
      </g>
     </g>
    </g>
    <g id="ytick_30">
     <g id="line2d_36">
      <g>
       <use xlink:href="#md90caa7ed9" x="55.772054" y="92.699387" style="stroke: #000000; stroke-width: 0.6"/>
      </g>
     </g>
    </g>
    <g id="ytick_31">
     <g id="line2d_37">
      <g>
       <use xlink:href="#md90caa7ed9" x="55.772054" y="89.77395" style="stroke: #000000; stroke-width: 0.6"/>
      </g>
     </g>
    </g>
    <g id="ytick_32">
     <g id="line2d_38">
      <g>
       <use xlink:href="#md90caa7ed9" x="55.772054" y="87.193531" style="stroke: #000000; stroke-width: 0.6"/>
      </g>
     </g>
    </g>
    <g id="ytick_33">
     <g id="line2d_39">
      <g>
       <use xlink:href="#md90caa7ed9" x="55.772054" y="69.699636" style="stroke: #000000; stroke-width: 0.6"/>
      </g>
     </g>
    </g>
    <g id="ytick_34">
     <g id="line2d_40">
      <g>
       <use xlink:href="#md90caa7ed9" x="55.772054" y="60.81661" style="stroke: #000000; stroke-width: 0.6"/>
      </g>
     </g>
    </g>
    <g id="ytick_35">
     <g id="line2d_41">
      <g>
       <use xlink:href="#md90caa7ed9" x="55.772054" y="54.514004" style="stroke: #000000; stroke-width: 0.6"/>
      </g>
     </g>
    </g>
    <g id="ytick_36">
     <g id="line2d_42">
      <g>
       <use xlink:href="#md90caa7ed9" x="55.772054" y="49.625322" style="stroke: #000000; stroke-width: 0.6"/>
      </g>
     </g>
    </g>
    <g id="ytick_37">
     <g id="line2d_43">
      <g>
       <use xlink:href="#md90caa7ed9" x="55.772054" y="45.630978" style="stroke: #000000; stroke-width: 0.6"/>
      </g>
     </g>
    </g>
    <g id="ytick_38">
     <g id="line2d_44">
      <g>
       <use xlink:href="#md90caa7ed9" x="55.772054" y="42.253809" style="stroke: #000000; stroke-width: 0.6"/>
      </g>
     </g>
    </g>
    <g id="ytick_39">
     <g id="line2d_45">
      <g>
       <use xlink:href="#md90caa7ed9" x="55.772054" y="39.328371" style="stroke: #000000; stroke-width: 0.6"/>
      </g>
     </g>
    </g>
    <g id="ytick_40">
     <g id="line2d_46">
      <g>
       <use xlink:href="#md90caa7ed9" x="55.772054" y="36.747953" style="stroke: #000000; stroke-width: 0.6"/>
      </g>
     </g>
    </g>
    <g id="text_13">
     <!-- Speedup (SQLite / Datalevin) -->
     <g transform="translate(19.192366 209.074844) rotate(-90) scale(0.1 -0.1)">
      <defs>
       <path id="DejaVuSans-53" d="M 3425 4513 
L 3425 3897 
Q 3066 4069 2747 4153 
Q 2428 4238 2131 4238 
Q 1616 4238 1336 4038 
Q 1056 3838 1056 3469 
Q 1056 3159 1242 3001 
Q 1428 2844 1947 2747 
L 2328 2669 
Q 3034 2534 3370 2195 
Q 3706 1856 3706 1288 
Q 3706 609 3251 259 
Q 2797 -91 1919 -91 
Q 1588 -91 1214 -16 
Q 841 59 441 206 
L 441 856 
Q 825 641 1194 531 
Q 1563 422 1919 422 
Q 2459 422 2753 634 
Q 3047 847 3047 1241 
Q 3047 1584 2836 1778 
Q 2625 1972 2144 2069 
L 1759 2144 
Q 1053 2284 737 2584 
Q 422 2884 422 3419 
Q 422 4038 858 4394 
Q 1294 4750 2059 4750 
Q 2388 4750 2728 4690 
Q 3069 4631 3425 4513 
z
" transform="scale(0.015625)"/>
       <path id="DejaVuSans-70" d="M 1159 525 
L 1159 -1331 
L 581 -1331 
L 581 3500 
L 1159 3500 
L 1159 2969 
Q 1341 3281 1617 3432 
Q 1894 3584 2278 3584 
Q 2916 3584 3314 3078 
Q 3713 2572 3713 1747 
Q 3713 922 3314 415 
Q 2916 -91 2278 -91 
Q 1894 -91 1617 61 
Q 1341 213 1159 525 
z
M 3116 1747 
Q 3116 2381 2855 2742 
Q 2594 3103 2138 3103 
Q 1681 3103 1420 2742 
Q 1159 2381 1159 1747 
Q 1159 1113 1420 752 
Q 1681 391 2138 391 
Q 2594 391 2855 752 
Q 3116 1113 3116 1747 
z
" transform="scale(0.015625)"/>
       <path id="DejaVuSans-28" d="M 1984 4856 
Q 1566 4138 1362 3434 
Q 1159 2731 1159 2009 
Q 1159 1288 1364 580 
Q 1569 -128 1984 -844 
L 1484 -844 
Q 1016 -109 783 600 
Q 550 1309 550 2009 
Q 550 2706 781 3412 
Q 1013 4119 1484 4856 
L 1984 4856 
z
" transform="scale(0.015625)"/>
       <path id="DejaVuSans-4c" d="M 628 4666 
L 1259 4666 
L 1259 531 
L 3531 531 
L 3531 0 
L 628 0 
L 628 4666 
z
" transform="scale(0.015625)"/>
       <path id="DejaVuSans-69" d="M 603 3500 
L 1178 3500 
L 1178 0 
L 603 0 
L 603 3500 
z
M 603 4863 
L 1178 4863 
L 1178 4134 
L 603 4134 
L 603 4863 
z
" transform="scale(0.015625)"/>
       <path id="DejaVuSans-74" d="M 1172 4494 
L 1172 3500 
L 2356 3500 
L 2356 3053 
L 1172 3053 
L 1172 1153 
Q 1172 725 1289 603 
Q 1406 481 1766 481 
L 2356 481 
L 2356 0 
L 1766 0 
Q 1100 0 847 248 
Q 594 497 594 1153 
L 594 3053 
L 172 3053 
L 172 3500 
L 594 3500 
L 594 4494 
L 1172 4494 
z
" transform="scale(0.015625)"/>
       <path id="DejaVuSans-2f" d="M 1625 4666 
L 2156 4666 
L 531 -594 
L 0 -594 
L 1625 4666 
z
" transform="scale(0.015625)"/>
       <path id="DejaVuSans-44" d="M 1259 4147 
L 1259 519 
L 2022 519 
Q 2988 519 3436 956 
Q 3884 1394 3884 2338 
Q 3884 3275 3436 3711 
Q 2988 4147 2022 4147 
L 1259 4147 
z
M 628 4666 
L 1925 4666 
Q 3281 4666 3915 4102 
Q 4550 3538 4550 2338 
Q 4550 1131 3912 565 
Q 3275 0 1925 0 
L 628 0 
L 628 4666 
z
" transform="scale(0.015625)"/>
       <path id="DejaVuSans-61" d="M 2194 1759 
Q 1497 1759 1228 1600 
Q 959 1441 959 1056 
Q 959 750 1161 570 
Q 1363 391 1709 391 
Q 2188 391 2477 730 
Q 2766 1069 2766 1631 
L 2766 1759 
L 2194 1759 
z
M 3341 1997 
L 3341 0 
L 2766 0 
L 2766 531 
Q 2569 213 2275 61 
Q 1981 -91 1556 -91 
Q 1019 -91 701 211 
Q 384 513 384 1019 
Q 384 1609 779 1909 
Q 1175 2209 1959 2209 
L 2766 2209 
L 2766 2266 
Q 2766 2663 2505 2880 
Q 2244 3097 1772 3097 
Q 1472 3097 1187 3025 
Q 903 2953 641 2809 
L 641 3341 
Q 956 3463 1253 3523 
Q 1550 3584 1831 3584 
Q 2591 3584 2966 3190 
Q 3341 2797 3341 1997 
z
" transform="scale(0.015625)"/>
       <path id="DejaVuSans-6c" d="M 603 4863 
L 1178 4863 
L 1178 0 
L 603 0 
L 603 4863 
z
" transform="scale(0.015625)"/>
       <path id="DejaVuSans-76" d="M 191 3500 
L 800 3500 
L 1894 563 
L 2988 3500 
L 3597 3500 
L 2284 0 
L 1503 0 
L 191 3500 
z
" transform="scale(0.015625)"/>
       <path id="DejaVuSans-29" d="M 513 4856 
L 1013 4856 
Q 1481 4119 1714 3412 
Q 1947 2706 1947 2009 
Q 1947 1309 1714 600 
Q 1481 -109 1013 -844 
L 513 -844 
Q 928 -128 1133 580 
Q 1338 1288 1338 2009 
Q 1338 2731 1133 3434 
Q 928 4138 513 4856 
z
" transform="scale(0.015625)"/>
      </defs>
      <use xlink:href="#DejaVuSans-53"/>
      <use xlink:href="#DejaVuSans-70" x="63.476562"/>
      <use xlink:href="#DejaVuSans-65" x="126.953125"/>
      <use xlink:href="#DejaVuSans-65" x="188.476562"/>
      <use xlink:href="#DejaVuSans-64" x="250"/>
      <use xlink:href="#DejaVuSans-75" x="313.476562"/>
      <use xlink:href="#DejaVuSans-70" x="376.855469"/>
      <use xlink:href="#DejaVuSans-20" x="440.332031"/>
      <use xlink:href="#DejaVuSans-28" x="472.119141"/>
      <use xlink:href="#DejaVuSans-53" x="511.132812"/>
      <use xlink:href="#DejaVuSans-51" x="574.609375"/>
      <use xlink:href="#DejaVuSans-4c" x="653.320312"/>
      <use xlink:href="#DejaVuSans-69" x="709.033203"/>
      <use xlink:href="#DejaVuSans-74" x="736.816406"/>
      <use xlink:href="#DejaVuSans-65" x="776.025391"/>
      <use xlink:href="#DejaVuSans-20" x="837.548828"/>
      <use xlink:href="#DejaVuSans-2f" x="869.335938"/>
      <use xlink:href="#DejaVuSans-20" x="903.027344"/>
      <use xlink:href="#DejaVuSans-44" x="934.814453"/>
      <use xlink:href="#DejaVuSans-61" x="1011.816406"/>
      <use xlink:href="#DejaVuSans-74" x="1073.095703"/>
      <use xlink:href="#DejaVuSans-61" x="1112.304688"/>
      <use xlink:href="#DejaVuSans-6c" x="1173.583984"/>
      <use xlink:href="#DejaVuSans-65" x="1201.367188"/>
      <use xlink:href="#DejaVuSans-76" x="1262.890625"/>
      <use xlink:href="#DejaVuSans-69" x="1322.070312"/>
      <use xlink:href="#DejaVuSans-6e" x="1349.853516"/>
      <use xlink:href="#DejaVuSans-29" x="1413.232422"/>
     </g>
    </g>
   </g>
   <g id="line2d_47">
    <path d="M 55.772054 135.330846 
L 853.2 135.330846 
" clip-path="url(#pfa84f0c629)" style="fill: none; stroke: #1f77b4; stroke-linecap: square"/>
   </g>
   <g id="line2d_48">
    <path d="M 55.772054 84.885268 
L 853.2 84.885268 
" clip-path="url(#pfa84f0c629)" style="fill: none; stroke: #1f77b4; stroke-linecap: square"/>
   </g>
   <g id="line2d_49">
    <path d="M 55.772054 34.43969 
L 853.2 34.43969 
" clip-path="url(#pfa84f0c629)" style="fill: none; stroke: #1f77b4; stroke-linecap: square"/>
   </g>
   <g id="patch_3">
    <path d="M 55.772054 246.04 
L 55.772054 26.88 
" style="fill: none; stroke: #000000; stroke-width: 0.8; stroke-linejoin: miter; stroke-linecap: square"/>
   </g>
   <g id="patch_4">
    <path d="M 853.2 246.04 
L 853.2 26.88 
" style="fill: none; stroke: #000000; stroke-width: 0.8; stroke-linejoin: miter; stroke-linecap: square"/>
   </g>
   <g id="patch_5">
    <path d="M 55.772054 246.04 
L 853.2 246.04 
" style="fill: none; stroke: #000000; stroke-width: 0.8; stroke-linejoin: miter; stroke-linecap: square"/>
   </g>
   <g id="patch_6">
    <path d="M 55.772054 26.88 
L 853.2 26.88 
" style="fill: none; stroke: #000000; stroke-width: 0.8; stroke-linejoin: miter; stroke-linecap: square"/>
   </g>
   <g id="text_14">
    <!-- Datalevin Speedup over SQLite (log scale) -->
    <g transform="translate(327.567277 20.88) scale(0.12 -0.12)">
     <defs>
      <path id="DejaVuSans-6f" d="M 1959 3097 
Q 1497 3097 1228 2736 
Q 959 2375 959 1747 
Q 959 1119 1226 758 
Q 1494 397 1959 397 
Q 2419 397 2687 759 
Q 2956 1122 2956 1747 
Q 2956 2369 2687 2733 
Q 2419 3097 1959 3097 
z
M 1959 3584 
Q 2709 3584 3137 3096 
Q 3566 2609 3566 1747 
Q 3566 888 3137 398 
Q 2709 -91 1959 -91 
Q 1206 -91 779 398 
Q 353 888 353 1747 
Q 353 2609 779 3096 
Q 1206 3584 1959 3584 
z
" transform="scale(0.015625)"/>
      <path id="DejaVuSans-67" d="M 2906 1791 
Q 2906 2416 2648 2759 
Q 2391 3103 1925 3103 
Q 1463 3103 1205 2759 
Q 947 2416 947 1791 
Q 947 1169 1205 825 
Q 1463 481 1925 481 
Q 2391 481 2648 825 
Q 2906 1169 2906 1791 
z
M 3481 434 
Q 3481 -459 3084 -895 
Q 2688 -1331 1869 -1331 
Q 1566 -1331 1297 -1286 
Q 1028 -1241 775 -1147 
L 775 -588 
Q 1028 -725 1275 -790 
Q 1522 -856 1778 -856 
Q 2344 -856 2625 -561 
Q 2906 -266 2906 331 
L 2906 616 
Q 2728 306 2450 153 
Q 2172 0 1784 0 
Q 1141 0 747 490 
Q 353 981 353 1791 
Q 353 2603 747 3093 
Q 1141 3584 1784 3584 
Q 2172 3584 2450 3431 
Q 2728 3278 2906 2969 
L 2906 3500 
L 3481 3500 
L 3481 434 
z
" transform="scale(0.015625)"/>
      <path id="DejaVuSans-73" d="M 2834 3397 
L 2834 2853 
Q 2591 2978 2328 3040 
Q 2066 3103 1784 3103 
Q 1356 3103 1142 2972 
Q 928 2841 928 2578 
Q 928 2378 1081 2264 
Q 1234 2150 1697 2047 
L 1894 2003 
Q 2506 1872 2764 1633 
Q 3022 1394 3022 966 
Q 3022 478 2636 193 
Q 2250 -91 1575 -91 
Q 1294 -91 989 -36 
Q 684 19 347 128 
L 347 722 
Q 666 556 975 473 
Q 1284 391 1588 391 
Q 1994 391 2212 530 
Q 2431 669 2431 922 
Q 2431 1156 2273 1281 
Q 2116 1406 1581 1522 
L 1381 1569 
Q 847 1681 609 1914 
Q 372 2147 372 2553 
Q 372 3047 722 3315 
Q 1072 3584 1716 3584 
Q 2034 3584 2315 3537 
Q 2597 3491 2834 3397 
z
" transform="scale(0.015625)"/>
      <path id="DejaVuSans-63" d="M 3122 3366 
L 3122 2828 
Q 2878 2963 2633 3030 
Q 2388 3097 2138 3097 
Q 1578 3097 1268 2742 
Q 959 2388 959 1747 
Q 959 1106 1268 751 
Q 1578 397 2138 397 
Q 2388 397 2633 464 
Q 2878 531 3122 666 
L 3122 134 
Q 2881 22 2623 -34 
Q 2366 -91 2075 -91 
Q 1284 -91 818 406 
Q 353 903 353 1747 
Q 353 2603 823 3093 
Q 1294 3584 2113 3584 
Q 2378 3584 2631 3529 
Q 2884 3475 3122 3366 
z
" transform="scale(0.015625)"/>
     </defs>
     <use xlink:href="#DejaVuSans-44"/>
     <use xlink:href="#DejaVuSans-61" x="77.001953"/>
     <use xlink:href="#DejaVuSans-74" x="138.28125"/>
     <use xlink:href="#DejaVuSans-61" x="177.490234"/>
     <use xlink:href="#DejaVuSans-6c" x="238.769531"/>
     <use xlink:href="#DejaVuSans-65" x="266.552734"/>
     <use xlink:href="#DejaVuSans-76" x="328.076172"/>
     <use xlink:href="#DejaVuSans-69" x="387.255859"/>
     <use xlink:href="#DejaVuSans-6e" x="415.039062"/>
     <use xlink:href="#DejaVuSans-20" x="478.417969"/>
     <use xlink:href="#DejaVuSans-53" x="510.205078"/>
     <use xlink:href="#DejaVuSans-70" x="573.681641"/>
     <use xlink:href="#DejaVuSans-65" x="637.158203"/>
     <use xlink:href="#DejaVuSans-65" x="698.681641"/>
     <use xlink:href="#DejaVuSans-64" x="760.205078"/>
     <use xlink:href="#DejaVuSans-75" x="823.681641"/>
     <use xlink:href="#DejaVuSans-70" x="887.060547"/>
     <use xlink:href="#DejaVuSans-20" x="950.537109"/>
     <use xlink:href="#DejaVuSans-6f" x="982.324219"/>
     <use xlink:href="#DejaVuSans-76" x="1043.505859"/>
     <use xlink:href="#DejaVuSans-65" x="1102.685547"/>
     <use xlink:href="#DejaVuSans-72" x="1164.208984"/>
     <use xlink:href="#DejaVuSans-20" x="1205.322266"/>
     <use xlink:href="#DejaVuSans-53" x="1237.109375"/>
     <use xlink:href="#DejaVuSans-51" x="1300.585938"/>
     <use xlink:href="#DejaVuSans-4c" x="1379.296875"/>
     <use xlink:href="#DejaVuSans-69" x="1435.009766"/>
     <use xlink:href="#DejaVuSans-74" x="1462.792969"/>
     <use xlink:href="#DejaVuSans-65" x="1502.001953"/>
     <use xlink:href="#DejaVuSans-20" x="1563.525391"/>
     <use xlink:href="#DejaVuSans-28" x="1595.3125"/>
     <use xlink:href="#DejaVuSans-6c" x="1634.326172"/>
     <use xlink:href="#DejaVuSans-6f" x="1662.109375"/>
     <use xlink:href="#DejaVuSans-67" x="1723.291016"/>
     <use xlink:href="#DejaVuSans-20" x="1786.767578"/>
     <use xlink:href="#DejaVuSans-73" x="1818.554688"/>
     <use xlink:href="#DejaVuSans-63" x="1870.654297"/>
     <use xlink:href="#DejaVuSans-61" x="1925.634766"/>
     <use xlink:href="#DejaVuSans-6c" x="1986.914062"/>
     <use xlink:href="#DejaVuSans-65" x="2014.697266"/>
     <use xlink:href="#DejaVuSans-29" x="2076.220703"/>
    </g>
   </g>
  </g>
 </g>
 <defs>
  <clipPath id="pfa84f0c629">
   <rect x="55.772054" y="26.88" width="797.427946" height="219.16"/>
  </clipPath>
 </defs>
</svg>
